<svg xmlns="http://www.w3.org/2000/svg" viewBox="0 0 18 15" width="144" height="120" shape-rendering="crispEdges"><rect x="15" y="0" width="1" height="1" fill="#86b09c"/><rect x="7" y="1" width="1" height="1" fill="#e2c05a"/><rect x="15" y="1" width="1" height="1" fill="#468580"/><rect x="6" y="2" width="2" height="1" fill="#e2c05a"/><rect x="14" y="2" width="1" height="1" fill="#86b09c"/><rect x="15" y="2" width="2" height="1" fill="#468580"/><rect x="4" y="3" width="6" height="1" fill="#c3962f"/><rect x="14" y="3" width="3" height="1" fill="#468580"/><rect x="3" y="4" width="1" height="1" fill="#c3962f"/><rect x="4" y="4" width="6" height="1" fill="#e2c05a"/><rect x="10" y="4" width="1" height="1" fill="#c3962f"/><rect x="14" y="4" width="3" height="1" fill="#e2ddcc"/><rect x="2" y="5" width="1" height="1" fill="#c3962f"/><rect x="3" y="5" width="7" height="1" fill="#e2c05a"/><rect x="10" y="5" width="1" height="1" fill="#c3962f"/><rect x="11" y="5" width="1" height="1" fill="#946a2a"/><rect x="15" y="5" width="1" height="1" fill="#81634b"/><rect x="2" y="6" width="1" height="1" fill="#c3962f"/><rect x="3" y="6" width="1" height="1" fill="#e2c05a"/><rect x="4" y="6" width="1" height="1" fill="#2b353a"/><rect x="5" y="6" width="4" height="1" fill="#e2c05a"/><rect x="9" y="6" width="1" height="1" fill="#2b353a"/><rect x="10" y="6" width="1" height="1" fill="#c3962f"/><rect x="11" y="6" width="1" height="1" fill="#946a2a"/><rect x="15" y="6" width="1" height="1" fill="#81634b"/><rect x="2" y="7" width="1" height="1" fill="#c3962f"/><rect x="3" y="7" width="1" height="1" fill="#e2c05a"/><rect x="4" y="7" width="1" height="1" fill="#2b353a"/><rect x="5" y="7" width="4" height="1" fill="#e2c05a"/><rect x="9" y="7" width="1" height="1" fill="#2b353a"/><rect x="10" y="7" width="1" height="1" fill="#c3962f"/><rect x="11" y="7" width="1" height="1" fill="#946a2a"/><rect x="15" y="7" width="1" height="1" fill="#81634b"/><rect x="2" y="8" width="1" height="1" fill="#c3962f"/><rect x="3" y="8" width="2" height="1" fill="#e2c05a"/><rect x="5" y="8" width="4" height="1" fill="#cc8654"/><rect x="9" y="8" width="2" height="1" fill="#c3962f"/><rect x="11" y="8" width="1" height="1" fill="#946a2a"/><rect x="15" y="8" width="1" height="1" fill="#81634b"/><rect x="1" y="9" width="2" height="1" fill="#c3962f"/><rect x="3" y="9" width="2" height="1" fill="#e2c05a"/><rect x="5" y="9" width="4" height="1" fill="#ad6340"/><rect x="9" y="9" width="2" height="1" fill="#c3962f"/><rect x="11" y="9" width="1" height="1" fill="#946a2a"/><rect x="12" y="9" width="4" height="1" fill="#c3962f"/><rect x="1" y="10" width="2" height="1" fill="#c3962f"/><rect x="3" y="10" width="5" height="1" fill="#e2c05a"/><rect x="8" y="10" width="3" height="1" fill="#c3962f"/><rect x="11" y="10" width="5" height="1" fill="#946a2a"/><rect x="2" y="11" width="1" height="1" fill="#946a2a"/><rect x="3" y="11" width="7" height="1" fill="#c3962f"/><rect x="10" y="11" width="2" height="1" fill="#946a2a"/><rect x="15" y="11" width="1" height="1" fill="#5e4537"/><rect x="3" y="12" width="8" height="1" fill="#946a2a"/><rect x="15" y="12" width="1" height="1" fill="#5e4537"/><rect x="4" y="13" width="1" height="1" fill="#ad6340"/><rect x="9" y="13" width="1" height="1" fill="#ad6340"/><rect x="3" y="14" width="2" height="1" fill="#ad6340"/><rect x="9" y="14" width="2" height="1" fill="#ad6340"/></svg>
