<svg xmlns="http://www.w3.org/2000/svg" viewBox="0 0 107 30" width="428" height="120" shape-rendering="crispEdges"><rect x="30" y="0" width="2" height="1" fill="#86b09c"/><rect x="30" y="1" width="2" height="1" fill="#86b09c"/><rect x="14" y="2" width="2" height="1" fill="#e2c05a"/><rect x="30" y="2" width="2" height="1" fill="#468580"/><rect x="14" y="3" width="2" height="1" fill="#e2c05a"/><rect x="30" y="3" width="2" height="1" fill="#468580"/><rect x="12" y="4" width="4" height="1" fill="#e2c05a"/><rect x="28" y="4" width="2" height="1" fill="#86b09c"/><rect x="30" y="4" width="4" height="1" fill="#468580"/><rect x="12" y="5" width="4" height="1" fill="#e2c05a"/><rect x="28" y="5" width="2" height="1" fill="#86b09c"/><rect x="30" y="5" width="4" height="1" fill="#468580"/><rect x="53" y="5" width="3" height="1" fill="#2b353a"/><rect x="72" y="5" width="3" height="1" fill="#2b353a"/><rect x="78" y="5" width="3" height="1" fill="#2b353a"/><rect x="8" y="6" width="12" height="1" fill="#c3962f"/><rect x="28" y="6" width="6" height="1" fill="#468580"/><rect x="53" y="6" width="3" height="1" fill="#2b353a"/><rect x="72" y="6" width="3" height="1" fill="#2b353a"/><rect x="78" y="6" width="3" height="1" fill="#2b353a"/><rect x="8" y="7" width="12" height="1" fill="#c3962f"/><rect x="28" y="7" width="6" height="1" fill="#468580"/><rect x="53" y="7" width="3" height="1" fill="#2b353a"/><rect x="72" y="7" width="3" height="1" fill="#2b353a"/><rect x="78" y="7" width="3" height="1" fill="#2b353a"/><rect x="6" y="8" width="2" height="1" fill="#c3962f"/><rect x="8" y="8" width="12" height="1" fill="#e2c05a"/><rect x="20" y="8" width="2" height="1" fill="#c3962f"/><rect x="28" y="8" width="6" height="1" fill="#e2ddcc"/><rect x="72" y="8" width="3" height="1" fill="#2b353a"/><rect x="6" y="9" width="2" height="1" fill="#c3962f"/><rect x="8" y="9" width="12" height="1" fill="#e2c05a"/><rect x="20" y="9" width="2" height="1" fill="#c3962f"/><rect x="28" y="9" width="6" height="1" fill="#e2ddcc"/><rect x="40" y="9" width="3" height="1" fill="#2b353a"/><rect x="44" y="9" width="4" height="1" fill="#2b353a"/><rect x="59" y="9" width="3" height="1" fill="#2b353a"/><rect x="66" y="9" width="3" height="1" fill="#2b353a"/><rect x="72" y="9" width="3" height="1" fill="#2b353a"/><rect x="84" y="9" width="3" height="1" fill="#2b353a"/><rect x="88" y="9" width="4" height="1" fill="#2b353a"/><rect x="99" y="9" width="8" height="1" fill="#2b353a"/><rect x="4" y="10" width="2" height="1" fill="#c3962f"/><rect x="6" y="10" width="14" height="1" fill="#e2c05a"/><rect x="20" y="10" width="2" height="1" fill="#c3962f"/><rect x="22" y="10" width="2" height="1" fill="#946a2a"/><rect x="30" y="10" width="2" height="1" fill="#81634b"/><rect x="40" y="10" width="9" height="1" fill="#2b353a"/><rect x="53" y="10" width="3" height="1" fill="#2b353a"/><rect x="59" y="10" width="3" height="1" fill="#2b353a"/><rect x="66" y="10" width="3" height="1" fill="#2b353a"/><rect x="72" y="10" width="3" height="1" fill="#2b353a"/><rect x="78" y="10" width="3" height="1" fill="#2b353a"/><rect x="84" y="10" width="9" height="1" fill="#2b353a"/><rect x="98" y="10" width="9" height="1" fill="#2b353a"/><rect x="4" y="11" width="2" height="1" fill="#c3962f"/><rect x="6" y="11" width="14" height="1" fill="#e2c05a"/><rect x="20" y="11" width="2" height="1" fill="#c3962f"/><rect x="22" y="11" width="2" height="1" fill="#946a2a"/><rect x="30" y="11" width="2" height="1" fill="#81634b"/><rect x="40" y="11" width="10" height="1" fill="#2b353a"/><rect x="53" y="11" width="3" height="1" fill="#2b353a"/><rect x="59" y="11" width="4" height="1" fill="#2b353a"/><rect x="65" y="11" width="4" height="1" fill="#2b353a"/><rect x="72" y="11" width="3" height="1" fill="#2b353a"/><rect x="78" y="11" width="3" height="1" fill="#2b353a"/><rect x="84" y="11" width="10" height="1" fill="#2b353a"/><rect x="97" y="11" width="10" height="1" fill="#2b353a"/><rect x="4" y="12" width="2" height="1" fill="#c3962f"/><rect x="6" y="12" width="2" height="1" fill="#e2c05a"/><rect x="8" y="12" width="2" height="1" fill="#2b353a"/><rect x="10" y="12" width="8" height="1" fill="#e2c05a"/><rect x="18" y="12" width="2" height="1" fill="#2b353a"/><rect x="20" y="12" width="2" height="1" fill="#c3962f"/><rect x="22" y="12" width="2" height="1" fill="#946a2a"/><rect x="30" y="12" width="2" height="1" fill="#81634b"/><rect x="40" y="12" width="4" height="1" fill="#2b353a"/><rect x="47" y="12" width="3" height="1" fill="#2b353a"/><rect x="53" y="12" width="3" height="1" fill="#2b353a"/><rect x="60" y="12" width="8" height="1" fill="#2b353a"/><rect x="72" y="12" width="3" height="1" fill="#2b353a"/><rect x="78" y="12" width="3" height="1" fill="#2b353a"/><rect x="84" y="12" width="4" height="1" fill="#2b353a"/><rect x="91" y="12" width="3" height="1" fill="#2b353a"/><rect x="97" y="12" width="3" height="1" fill="#2b353a"/><rect x="104" y="12" width="3" height="1" fill="#2b353a"/><rect x="4" y="13" width="2" height="1" fill="#c3962f"/><rect x="6" y="13" width="2" height="1" fill="#e2c05a"/><rect x="8" y="13" width="2" height="1" fill="#2b353a"/><rect x="10" y="13" width="8" height="1" fill="#e2c05a"/><rect x="18" y="13" width="2" height="1" fill="#2b353a"/><rect x="20" y="13" width="2" height="1" fill="#c3962f"/><rect x="22" y="13" width="2" height="1" fill="#946a2a"/><rect x="30" y="13" width="2" height="1" fill="#81634b"/><rect x="40" y="13" width="3" height="1" fill="#2b353a"/><rect x="47" y="13" width="3" height="1" fill="#2b353a"/><rect x="53" y="13" width="3" height="1" fill="#2b353a"/><rect x="61" y="13" width="6" height="1" fill="#2b353a"/><rect x="72" y="13" width="3" height="1" fill="#2b353a"/><rect x="78" y="13" width="3" height="1" fill="#2b353a"/><rect x="84" y="13" width="3" height="1" fill="#2b353a"/><rect x="91" y="13" width="3" height="1" fill="#2b353a"/><rect x="97" y="13" width="3" height="1" fill="#2b353a"/><rect x="104" y="13" width="3" height="1" fill="#2b353a"/><rect x="4" y="14" width="2" height="1" fill="#c3962f"/><rect x="6" y="14" width="2" height="1" fill="#e2c05a"/><rect x="8" y="14" width="2" height="1" fill="#2b353a"/><rect x="10" y="14" width="8" height="1" fill="#e2c05a"/><rect x="18" y="14" width="2" height="1" fill="#2b353a"/><rect x="20" y="14" width="2" height="1" fill="#c3962f"/><rect x="22" y="14" width="2" height="1" fill="#946a2a"/><rect x="30" y="14" width="2" height="1" fill="#81634b"/><rect x="40" y="14" width="3" height="1" fill="#2b353a"/><rect x="47" y="14" width="3" height="1" fill="#2b353a"/><rect x="53" y="14" width="3" height="1" fill="#2b353a"/><rect x="62" y="14" width="4" height="1" fill="#2b353a"/><rect x="72" y="14" width="3" height="1" fill="#2b353a"/><rect x="78" y="14" width="3" height="1" fill="#2b353a"/><rect x="84" y="14" width="3" height="1" fill="#2b353a"/><rect x="91" y="14" width="3" height="1" fill="#2b353a"/><rect x="97" y="14" width="3" height="1" fill="#2b353a"/><rect x="104" y="14" width="3" height="1" fill="#2b353a"/><rect x="4" y="15" width="2" height="1" fill="#c3962f"/><rect x="6" y="15" width="2" height="1" fill="#e2c05a"/><rect x="8" y="15" width="2" height="1" fill="#2b353a"/><rect x="10" y="15" width="8" height="1" fill="#e2c05a"/><rect x="18" y="15" width="2" height="1" fill="#2b353a"/><rect x="20" y="15" width="2" height="1" fill="#c3962f"/><rect x="22" y="15" width="2" height="1" fill="#946a2a"/><rect x="30" y="15" width="2" height="1" fill="#81634b"/><rect x="40" y="15" width="3" height="1" fill="#2b353a"/><rect x="47" y="15" width="3" height="1" fill="#2b353a"/><rect x="53" y="15" width="3" height="1" fill="#2b353a"/><rect x="61" y="15" width="6" height="1" fill="#2b353a"/><rect x="72" y="15" width="3" height="1" fill="#2b353a"/><rect x="78" y="15" width="3" height="1" fill="#2b353a"/><rect x="84" y="15" width="3" height="1" fill="#2b353a"/><rect x="91" y="15" width="3" height="1" fill="#2b353a"/><rect x="97" y="15" width="3" height="1" fill="#2b353a"/><rect x="104" y="15" width="3" height="1" fill="#2b353a"/><rect x="4" y="16" width="2" height="1" fill="#c3962f"/><rect x="6" y="16" width="4" height="1" fill="#e2c05a"/><rect x="10" y="16" width="8" height="1" fill="#cc8654"/><rect x="18" y="16" width="4" height="1" fill="#c3962f"/><rect x="22" y="16" width="2" height="1" fill="#946a2a"/><rect x="30" y="16" width="2" height="1" fill="#81634b"/><rect x="40" y="16" width="3" height="1" fill="#2b353a"/><rect x="47" y="16" width="3" height="1" fill="#2b353a"/><rect x="53" y="16" width="3" height="1" fill="#2b353a"/><rect x="60" y="16" width="8" height="1" fill="#2b353a"/><rect x="72" y="16" width="3" height="1" fill="#2b353a"/><rect x="78" y="16" width="3" height="1" fill="#2b353a"/><rect x="84" y="16" width="3" height="1" fill="#2b353a"/><rect x="91" y="16" width="3" height="1" fill="#2b353a"/><rect x="97" y="16" width="10" height="1" fill="#2b353a"/><rect x="4" y="17" width="2" height="1" fill="#c3962f"/><rect x="6" y="17" width="4" height="1" fill="#e2c05a"/><rect x="10" y="17" width="8" height="1" fill="#cc8654"/><rect x="18" y="17" width="4" height="1" fill="#c3962f"/><rect x="22" y="17" width="2" height="1" fill="#946a2a"/><rect x="30" y="17" width="2" height="1" fill="#81634b"/><rect x="40" y="17" width="10" height="1" fill="#2b353a"/><rect x="53" y="17" width="3" height="1" fill="#2b353a"/><rect x="59" y="17" width="4" height="1" fill="#2b353a"/><rect x="65" y="17" width="4" height="1" fill="#2b353a"/><rect x="72" y="17" width="3" height="1" fill="#2b353a"/><rect x="78" y="17" width="3" height="1" fill="#2b353a"/><rect x="84" y="17" width="3" height="1" fill="#2b353a"/><rect x="91" y="17" width="3" height="1" fill="#2b353a"/><rect x="98" y="17" width="9" height="1" fill="#2b353a"/><rect x="2" y="18" width="4" height="1" fill="#c3962f"/><rect x="6" y="18" width="4" height="1" fill="#e2c05a"/><rect x="10" y="18" width="8" height="1" fill="#ad6340"/><rect x="18" y="18" width="4" height="1" fill="#c3962f"/><rect x="22" y="18" width="2" height="1" fill="#946a2a"/><rect x="24" y="18" width="8" height="1" fill="#c3962f"/><rect x="40" y="18" width="9" height="1" fill="#2b353a"/><rect x="53" y="18" width="3" height="1" fill="#2b353a"/><rect x="59" y="18" width="3" height="1" fill="#2b353a"/><rect x="66" y="18" width="3" height="1" fill="#2b353a"/><rect x="72" y="18" width="3" height="1" fill="#2b353a"/><rect x="78" y="18" width="3" height="1" fill="#2b353a"/><rect x="84" y="18" width="3" height="1" fill="#2b353a"/><rect x="91" y="18" width="3" height="1" fill="#2b353a"/><rect x="99" y="18" width="4" height="1" fill="#2b353a"/><rect x="104" y="18" width="3" height="1" fill="#2b353a"/><rect x="2" y="19" width="4" height="1" fill="#c3962f"/><rect x="6" y="19" width="4" height="1" fill="#e2c05a"/><rect x="10" y="19" width="8" height="1" fill="#ad6340"/><rect x="18" y="19" width="4" height="1" fill="#c3962f"/><rect x="22" y="19" width="2" height="1" fill="#946a2a"/><rect x="24" y="19" width="8" height="1" fill="#c3962f"/><rect x="40" y="19" width="8" height="1" fill="#2b353a"/><rect x="53" y="19" width="3" height="1" fill="#2b353a"/><rect x="59" y="19" width="3" height="1" fill="#2b353a"/><rect x="66" y="19" width="3" height="1" fill="#2b353a"/><rect x="72" y="19" width="3" height="1" fill="#2b353a"/><rect x="78" y="19" width="3" height="1" fill="#2b353a"/><rect x="84" y="19" width="3" height="1" fill="#2b353a"/><rect x="91" y="19" width="3" height="1" fill="#2b353a"/><rect x="104" y="19" width="3" height="1" fill="#2b353a"/><rect x="2" y="20" width="4" height="1" fill="#c3962f"/><rect x="6" y="20" width="10" height="1" fill="#e2c05a"/><rect x="16" y="20" width="6" height="1" fill="#c3962f"/><rect x="22" y="20" width="10" height="1" fill="#946a2a"/><rect x="40" y="20" width="3" height="1" fill="#2b353a"/><rect x="97" y="20" width="3" height="1" fill="#2b353a"/><rect x="104" y="20" width="3" height="1" fill="#2b353a"/><rect x="2" y="21" width="4" height="1" fill="#c3962f"/><rect x="6" y="21" width="10" height="1" fill="#e2c05a"/><rect x="16" y="21" width="6" height="1" fill="#c3962f"/><rect x="22" y="21" width="10" height="1" fill="#946a2a"/><rect x="40" y="21" width="3" height="1" fill="#2b353a"/><rect x="97" y="21" width="4" height="1" fill="#2b353a"/><rect x="103" y="21" width="4" height="1" fill="#2b353a"/><rect x="4" y="22" width="2" height="1" fill="#946a2a"/><rect x="6" y="22" width="14" height="1" fill="#c3962f"/><rect x="20" y="22" width="4" height="1" fill="#946a2a"/><rect x="30" y="22" width="2" height="1" fill="#5e4537"/><rect x="40" y="22" width="3" height="1" fill="#2b353a"/><rect x="98" y="22" width="8" height="1" fill="#2b353a"/><rect x="4" y="23" width="2" height="1" fill="#946a2a"/><rect x="6" y="23" width="14" height="1" fill="#c3962f"/><rect x="20" y="23" width="4" height="1" fill="#946a2a"/><rect x="30" y="23" width="2" height="1" fill="#5e4537"/><rect x="40" y="23" width="3" height="1" fill="#2b353a"/><rect x="99" y="23" width="6" height="1" fill="#2b353a"/><rect x="6" y="24" width="16" height="1" fill="#946a2a"/><rect x="30" y="24" width="2" height="1" fill="#5e4537"/><rect x="6" y="25" width="16" height="1" fill="#946a2a"/><rect x="30" y="25" width="2" height="1" fill="#5e4537"/><rect x="8" y="26" width="2" height="1" fill="#ad6340"/><rect x="18" y="26" width="2" height="1" fill="#ad6340"/><rect x="8" y="27" width="2" height="1" fill="#ad6340"/><rect x="18" y="27" width="2" height="1" fill="#ad6340"/><rect x="6" y="28" width="4" height="1" fill="#ad6340"/><rect x="18" y="28" width="4" height="1" fill="#ad6340"/><rect x="6" y="29" width="4" height="1" fill="#ad6340"/><rect x="18" y="29" width="4" height="1" fill="#ad6340"/></svg>
